:SAMPLES-PER-SECOND 24
:FULLY-SPECIFIED
:DEGREES
455
root  1.26836 39.3203 0.272443 100.201 0.16748 72.5217
RightUpLeg  -44.9713 -48.2926 -59.9459
RightLeg  6.32389 -13.3009 -3.49782
RightFoot  1.16426 0.853927 -7.71221
RightToes  -1.74623e-010 0 -2.59999e-017
Spine  2.42681 -5.73035 4.38686
Spine1  7.26674 0.0420908 -26.2823
HEad  -22.0288 58.5417 -47.947
LeftShoulder1  1.95158 -3.22909 -22.6983
LeftArm  31.7155 2.82892 -23.8577
LeftForeArm  149.74 -69.0569 -152.004
LeftHand  -0.271454 3.46341 15.8218
RightShoulder  1.94062 3.72901 20.4897
RightArm  -0.758048 -29.0947 14.0366
RightForeArm  159.686 55.3126 164.691
RightHand  -0.65942 -0.364278 -15.2495
LeftUpLeg  -9.02896 27.4142 44.6234
LeftLeg  23.7868 -18.9733 -10.1255
LeftFoot  -4.12126 2.4311 -36.9081
LeftToes  -6.27559e-011 -2.10356e-011 8.24929e-012
456
root  0.930032 39.4404 -0.582939 99.1817 1.11169 70.7334
RightUpLeg  -47.4535 -48.2813 -56.4963
RightLeg  2.48095 -11.8863 -2.12072
RightFoot  3.95079 1.26869 -9.19445
RightToes  -1.74623e-010 0 -2.59999e-017
Spine  2.6887 -5.5175 6.27491
Spine1  8.87827 1.18126 -27.6053
HEad  -22.9322 57.8432 -49.5969
LeftShoulder1  2.07862 -3.43797 -23.7019
LeftArm  30.8466 3.69252 -21.519
LeftForeArm  145.334 -71.2078 -148.051
LeftHand  -0.439602 2.23915 16.0504
RightShoulder  2.40665 4.59292 23.5779
RightArm  2.63461 -30.1115 22.3756
RightForeArm  162.892 60.8471 161.541
RightHand  -0.696215 0.825309 -13.1026
LeftUpLeg  -13.611 26.1006 44.7111
LeftLeg  41.7483 -15.8354 -14.1456
LeftFoot  -3.69675 2.40221 -34.6437
LeftToes  -6.27559e-011 -2.10356e-011 8.24929e-012
457
root  0.585995 39.4342 -0.910249 97.7598 1.58325 69.6366
RightUpLeg  -50.5947 -48.2854 -53.6529
RightLeg  3.2252 -9.17997 -1.68784
RightFoot  4.62672 1.36485 -9.47523
RightToes  -1.74623e-010 0 -2.59999e-017
Spine  4.33531 -5.09684 5.60959
Spine1  9.2618 1.84844 -28.107
HEad  -22.0555 56.2333 -50.8285
LeftShoulder1  2.34679 -3.7707 -26.1288
LeftArm  31.4345 3.7005 -20.3711
LeftForeArm  143.197 -72.3245 -145.657
LeftHand  -0.47642 1.42715 13.9027
RightShoulder  2.77266 5.29972 25.4411
RightArm  6.96852 -29.0266 25.4794
RightForeArm  162.732 64.1386 158.953
RightHand  -0.797504 1.9175 -12.8176
LeftUpLeg  -19.6426 29.1737 42.2469
LeftLeg  57.7742 -9.51537 -15.3059
LeftFoot  -4.16212 2.06617 -31.7704
LeftToes  -6.27559e-011 -2.10356e-011 8.24929e-012
458
root  0.229426 39.5773 -1.20404 95.6333 3.14754 70.2169
RightUpLeg  -49.2222 -47.1922 -53.2674
RightLeg  3.39696 -8.83939 -1.63166
RightFoot  5.34864 1.36407 -9.02369
RightToes  -1.74623e-010 0 -2.59999e-017
Spine  6.67623 -4.76642 4.70822
Spine1  9.81558 2.47006 -28.0896
HEad  -20.949 54.0593 -48.6983
LeftShoulder1  2.43386 -3.93421 -26.6101
LeftArm  32.0158 2.78002 -21.3803
LeftForeArm  145.172 -72.0345 -146.528
LeftHand  -0.395283 1.43918 11.5413
RightShoulder  3.00671 5.62792 26.9342
RightArm  10.0201 -26.8461 25.91
RightForeArm  160.3 66.2672 156.631
RightHand  -0.938404 2.83182 -13.4286
LeftUpLeg  -27.0887 35.5807 38.4875
LeftLeg  76.0909 -3.73489 -16.1303
LeftFoot  -7.19186 1.14616 -29.8258
LeftToes  -6.27559e-011 -2.10356e-011 8.24929e-012
459
root  0.0137286 39.9239 -1.74714 93.8179 7.15492 71.5085
RightUpLeg  -45.1246 -44.7934 -53.0212
RightLeg  2.40155 -11.3655 -2.17769
RightFoot  6.93921 1.5139 -9.08468
RightToes  -1.74623e-010 0 -2.59999e-017
Spine  6.01667 -4.79383 6.94866
Spine1  12.1574 3.8217 -29.6231
HEad  -21.3186 52.8762 -47.6219
LeftShoulder1  2.44561 -4.04014 -26.2939
LeftArm  30.0557 3.77256 -22.0067
LeftForeArm  146.102 -70.6319 -149.144
LeftHand  -0.272622 2.52844 10.7978
RightShoulder  3.10474 5.65211 27.9513
RightArm  10.408 -22.1674 29.5786
RightForeArm  155.825 70.2494 151.036
RightHand  -0.996454 3.3225 -13.4703
LeftUpLeg  -35.8002 39.375 34.362
LeftLeg  95.8118 2.15931 -17.2811
LeftFoot  -7.37284 1.01439 -27.7003
LeftToes  -6.27559e-011 -2.10356e-011 8.24929e-012
